<svg xmlns="http://www.w3.org/2000/svg" xmlns:xlink="http://www.w3.org/1999/xlink" width="1020px" height="360px" viewBox="-0.3336606189776372 -0.05895740166306496 1020.6658463210204 360.1159973144531" preserveAspectRatio="xMidYMid meet" ><defs id="svgEditorDefs"><polygon id="svgEditorShapeDefs" fill="khaki" stroke="black" style="vector-effect: non-scaling-stroke; stroke-width: 1px;"/><marker id="arrow20-16-left" markerHeight="16" markerUnits="strokeWidth" markerWidth="20" orient="auto" refX="3" refY="0" viewBox="0 -5 20 20"><path d="M 15 -5 L 0 0 L 15 5 z" fill="black"/></marker><marker id="arrow20-16-right" markerHeight="16" markerUnits="strokeWidth" markerWidth="20" orient="auto" refX="-3" refY="0" viewBox="-15 -5 20 20"><path d="M -15 -5 L 0 0 L -15 5 z" fill="black"/></marker><marker id="arrow8-6-right" markerHeight="6" markerUnits="strokeWidth" markerWidth="8" orient="auto" refX="-3" refY="0" viewBox="-15 -5 20 20"><path d="M -15 -5 L 0 0 L -15 5 z" fill="black"/></marker><marker id="arrow8-6-left" markerHeight="6" markerUnits="strokeWidth" markerWidth="8" orient="auto" refX="3" refY="0" viewBox="0 -5 20 20"><path d="M 15 -5 L 0 0 L 15 5 z" fill="black"/></marker><marker id="arrow10-8-left" markerHeight="8" markerUnits="strokeWidth" markerWidth="10" orient="auto" refX="3" refY="0" viewBox="0 -5 20 20"><path d="M 15 -5 L 0 0 L 15 5 z" fill="black"/></marker></defs><rect id="svgEditorBackground" x="0" y="0" width="1020" height="360" style="fill:none; stroke: none;"/><text fill="mediumblue" x="70.2197" y="290.886" id="e15_texte" style="font-family: &quot;Times New Roman&quot;; font-size: 18px;" dx="" dy="">val</text><text fill="black" x="91" y="177" id="e613_texte" style="font-family: Arial; font-size: 20px;"/><text fill="black" x="101" y="187" id="e628_texte" style="font-family: Arial; font-size: 20px;"/><rect x="178.546" y="249.254" stroke="black" id="e3_rectangle" style="stroke-width: 1px;" width="54.3323" height="47.2807" fill="white" rx="0" transform="matrix(1.13961 0 0 1.12095 -151.934 17.3711)" ry="0"/><text fill="black" x="70.109" y="277.937" id="val" style="font-family: &quot;Times New Roman&quot;; font-size: 20px;" dy="" dx="" transform="matrix(1.17415, 0, 0, 1.17415, -4.78595, 3.78332)">0</text></svg>